<svg xmlns="http://www.w3.org/2000/svg" width="20.311" height="17.177" viewBox="0 0 20.311 17.177">
  <g id="그룹_1954" data-name="그룹 1954" transform="translate(-99.373 -37.002)">
    <g id="그룹_1953" data-name="그룹 1953" transform="translate(99.373 37.003)">
      <path id="패스_2474" data-name="패스 2474" d="M119.444,46.309c.013-.017.026-.034.038-.052s.022-.035.032-.053.02-.031.028-.047.018-.037.027-.056.016-.033.023-.051.014-.036.02-.055.014-.037.019-.056.01-.038.015-.056.01-.039.014-.058.007-.044.01-.066.005-.033.007-.05a1.184,1.184,0,0,0,0-.238c0-.017,0-.033-.007-.05s-.006-.045-.01-.067-.009-.039-.014-.058-.009-.038-.015-.056-.012-.037-.019-.056-.013-.037-.02-.055-.016-.034-.023-.05-.017-.038-.027-.056-.019-.032-.028-.048-.02-.036-.032-.053-.025-.034-.038-.051-.02-.029-.032-.043c-.025-.031-.052-.06-.08-.088l-7.387-7.387a1.2,1.2,0,1,0-1.7,1.7l5.336,5.336H100.575a1.2,1.2,0,1,0,0,2.4h15.007l-5.336,5.335a1.2,1.2,0,1,0,1.7,1.7l7.387-7.386c.028-.028.054-.058.08-.088C119.424,46.339,119.433,46.324,119.444,46.309Z" transform="translate(-99.373 -37.003)" fill="#333"/>
    </g>
  </g>
</svg>
