<svg xmlns="http://www.w3.org/2000/svg" width="47.96" height="47.96" viewBox="0 0 47.96 47.96">
  <g id="그룹_811" data-name="그룹 811" transform="translate(-454.891 -203.631)">
    <path id="패스_2246" data-name="패스 2246" d="M478.871,251.591a23.98,23.98,0,1,1,23.979-23.979A24.008,24.008,0,0,1,478.871,251.591Zm0-45.682a21.7,21.7,0,1,0,21.7,21.7A21.727,21.727,0,0,0,478.871,205.909Zm8.085,11.972a1.775,1.775,0,1,0,1.775,1.775A1.775,1.775,0,0,0,486.957,217.881Zm-7.889,2.276a7.454,7.454,0,1,0,7.455,7.455A7.463,7.463,0,0,0,479.068,220.157Zm0,12.229a4.775,4.775,0,1,1,4.775-4.775A4.78,4.78,0,0,1,479.068,232.386Zm15.041-10.97a9.092,9.092,0,0,0-9.092-9.092h-12a9.092,9.092,0,0,0-9.092,9.092v12a9.092,9.092,0,0,0,9.092,9.092h12a9.092,9.092,0,0,0,9.092-9.092Zm-2.848,12a6.244,6.244,0,0,1-6.245,6.244h-12a6.244,6.244,0,0,1-6.244-6.244v-12a6.244,6.244,0,0,1,6.244-6.244h12a6.244,6.244,0,0,1,6.245,6.244Z" fill="#717171"/>
  </g>
</svg>
