<svg xmlns="http://www.w3.org/2000/svg" width="46.92" height="46.919" viewBox="0 0 46.92 46.919">
  <g id="그룹_810" data-name="그룹 810" transform="translate(-372.808 -202.947)">
    <g id="그룹_808" data-name="그룹 808" transform="translate(372.808 202.947)">
      <path id="패스_2244" data-name="패스 2244" d="M396.268,249.866a23.46,23.46,0,1,1,23.46-23.459A23.486,23.486,0,0,1,396.268,249.866Zm0-44.4a20.939,20.939,0,1,0,20.94,20.94A20.963,20.963,0,0,0,396.268,205.467Z" transform="translate(-372.808 -202.947)" fill="#717171"/>
    </g>
    <g id="그룹_809" data-name="그룹 809" transform="translate(389.71 212.345)">
      <path id="패스_2245" data-name="패스 2245" d="M395.351,228.054v13.6a.354.354,0,0,0,.354.354h5.049a.354.354,0,0,0,.354-.354V227.832h3.661a.354.354,0,0,0,.352-.324l.352-4.164a.355.355,0,0,0-.353-.384h-4.012v-2.953a1.254,1.254,0,0,1,1.254-1.254h2.821a.354.354,0,0,0,.354-.354v-4.163a.354.354,0,0,0-.354-.354h-4.767a5.065,5.065,0,0,0-5.065,5.065v4.013h-2.525a.354.354,0,0,0-.354.354v4.164a.354.354,0,0,0,.354.354h2.525Z" transform="translate(-392.472 -213.881)" fill="#717171" fill-rule="evenodd"/>
    </g>
  </g>
</svg>
