<svg xmlns="http://www.w3.org/2000/svg" width="48.999" height="49" viewBox="0 0 48.999 49">
  <g id="그룹_807" data-name="그룹 807" transform="translate(-454.713 -138.718)">
    <g id="그룹_804" data-name="그룹 804" transform="translate(454.713 138.718)">
      <path id="패스_2242" data-name="패스 2242" d="M479.213,187.718a24.5,24.5,0,1,1,24.5-24.5A24.528,24.528,0,0,1,479.213,187.718Zm0-46.368a21.868,21.868,0,1,0,21.867,21.868A21.892,21.892,0,0,0,479.213,141.35Z" transform="translate(-454.713 -138.718)" fill="#717171"/>
    </g>
    <g id="그룹_806" data-name="그룹 806" transform="translate(464.98 153.211)">
      <g id="그룹_805" data-name="그룹 805" transform="translate(0 0)">
        <path id="패스_2243" data-name="패스 2243" d="M495.052,161.155a6.292,6.292,0,0,0-6.292-6.292H472.442a6.291,6.291,0,0,0-6.291,6.292V168.8a6.292,6.292,0,0,0,6.291,6.292h16.319a6.292,6.292,0,0,0,6.292-6.292Zm-10.3,4.209-6.508,3.569c-.283.153-.538-.051-.538-.373v-7.327c0-.326.263-.53.546-.369l6.553,3.758A.427.427,0,0,1,484.757,165.364Z" transform="translate(-466.151 -154.863)" fill="#717171"/>
      </g>
    </g>
  </g>
</svg>
