<svg xmlns="http://www.w3.org/2000/svg" width="143.485" height="27.937" viewBox="0 0 143.485 27.937">
  <g id="그룹_1" data-name="그룹 1" transform="translate(-339.674 -361.941)">
    <path id="패스_3" data-name="패스 3" d="M401.831,385.164a2.564,2.564,0,0,1-2.543,2.542,2.531,2.531,0,0,1-2.542-2.542v-7.7a5.185,5.185,0,0,0-5.173-5.173,4.926,4.926,0,0,0-3.637,1.519,4.983,4.983,0,0,0-1.519,3.655v7.7a2.542,2.542,0,1,1-5.084,0v-7.7a10.249,10.249,0,1,1,20.5,0Z" transform="translate(-5.218 -0.66)" fill="#8ac1eb"/>
    <path id="패스_4" data-name="패스 4" d="M423.407,369.751a2.563,2.563,0,0,1,2.542-2.542,2.594,2.594,0,0,1,2.543,2.542v7.715a10.249,10.249,0,0,1-20.5,0v-7.715a2.542,2.542,0,0,1,5.084,0v7.715a5.164,5.164,0,0,0,10.328,0Z" transform="translate(-8.557 -0.66)" fill="#8ac1eb"/>
    <path id="패스_5" data-name="패스 5" d="M452.293,378.19a2.543,2.543,0,0,1-4.343-1.783,4.1,4.1,0,1,0-8.21,0v8.757a2.542,2.542,0,1,1-5.084,0v-8.757a9.189,9.189,0,1,1,18.379,0A2.431,2.431,0,0,1,452.293,378.19Z" transform="translate(-11.896 -0.66)" fill="#8ac1eb"/>
    <path id="패스_6" data-name="패스 6" d="M472.83,381.085a2.392,2.392,0,0,1,1.783.866,2.131,2.131,0,0,1,.513,1.783,2.582,2.582,0,0,1-.972,1.624,10.141,10.141,0,0,1-3.071,1.749,10.31,10.31,0,0,1-3.461.6,10.249,10.249,0,1,1,10.258-10.24q0,1.96-2.543,1.959H462.89a4.406,4.406,0,0,0,1.447,2.384,5.373,5.373,0,0,0,6.568-.123A2.684,2.684,0,0,1,472.83,381.085Zm-.688-5.6q-1.361-3.461-4.521-3.461a4.825,4.825,0,0,0-4.82,3.461Z" transform="translate(-14.742 -0.66)" fill="#8ac1eb"/>
    <path id="패스_7" data-name="패스 7" d="M483.437,364.2a2.232,2.232,0,0,1,2.259-2.259,2.164,2.164,0,0,1,1.589.653,2.191,2.191,0,0,1,.671,1.606v3.231h8.05a2.26,2.26,0,1,1,0,4.519h-8.05v7.169a3.375,3.375,0,0,0,3.39,3.39,3.372,3.372,0,0,0,1.924-.583,3.3,3.3,0,0,0,1.254-1.571,2.262,2.262,0,0,1,2.93-1.289,2.288,2.288,0,0,1,1.254,1.2,2.214,2.214,0,0,1,.035,1.73,7.888,7.888,0,0,1-2.931,3.672,7.736,7.736,0,0,1-4.466,1.377,7.9,7.9,0,0,1-7.91-7.927Z" transform="translate(-18.006)" fill="#8ac1eb"/>
    <path id="패스_8" data-name="패스 8" d="M503.055,377.879a2.262,2.262,0,1,1-2.261-2.262A2.261,2.261,0,0,1,503.055,377.879Z" transform="translate(-19.896 -1.713)" fill="#afddf8"/>
    <path id="패스_9" data-name="패스 9" d="M371.932,372.057a6.407,6.407,0,1,1-5-7.554A6.406,6.406,0,0,1,371.932,372.057Z" transform="translate(-2.451 -0.305)" fill="#afddf8"/>
    <path id="패스_10" data-name="패스 10" d="M354.114,370.216a10.62,10.62,0,0,1,1.662-6.243.863.863,0,0,0-.6-1.328,13.638,13.638,0,0,0-3.493-.011,13.712,13.712,0,1,0,14.824,17.6,10.445,10.445,0,0,1-4.465-.22A10.747,10.747,0,0,1,354.114,370.216Z" transform="translate(0 -0.073)" fill="#8ac1eb"/>
  </g>
</svg>
